PathFileType	4	(X/Y/Z)	/Users/itak/Documents/Research/Walk-IL/dataset/trc/00448_00167.trc
DataRate	CameraRate	NumFrames	NumMarkers	Units	OrigDataRate	OrigDataStartFrame	OrigNumFrames
100.000000	100.000000	4	53	mm	100.000000	0	517
Frame#	Time	RPSI			LPSI			L3			STRN			T10			C7			CLAV			RBAK			LBAK			LSHO			LUPA			LAEL			LAOL			LWTS			LWPS			LFRA			LIFD			LHPS			LHTS			RSHO			RUPA			RAEL			RAOL			RWTS			RWPS			RFRA			RIFD			RHTS			RHPS			RBHD			LFHD			RFHD			LBHD			LHIP			RHIP			RASI			LASI			LKNE			LTHI			LANK			LTIP			LTOE			LMT1			LMT5			LHEE			RKNE			RTHI			RANK			RTIP			RTOE			RMT1			RMT5			RHEE			
		X1	Y1	Z1	X2	Y2	Z2	X3	Y3	Z3	X4	Y4	Z4	X5	Y5	Z5	X6	Y6	Z6	X7	Y7	Z7	X8	Y8	Z8	X9	Y9	Z9	X10	Y10	Z10	X11	Y11	Z11	X12	Y12	Z12	X13	Y13	Z13	X14	Y14	Z14	X15	Y15	Z15	X16	Y16	Z16	X17	Y17	Z17	X18	Y18	Z18	X19	Y19	Z19	X20	Y20	Z20	X21	Y21	Z21	X22	Y22	Z22	X23	Y23	Z23	X24	Y24	Z24	X25	Y25	Z25	X26	Y26	Z26	X27	Y27	Z27	X28	Y28	Z28	X29	Y29	Z29	X30	Y30	Z30	X31	Y31	Z31	X32	Y32	Z32	X33	Y33	Z33	X34	Y34	Z34	X35	Y35	Z35	X36	Y36	Z36	X37	Y37	Z37	X38	Y38	Z38	X39	Y39	Z39	X40	Y40	Z40	X41	Y41	Z41	X42	Y42	Z42	X43	Y43	Z43	X44	Y44	Z44	X45	Y45	Z45	X46	Y46	Z46	X47	Y47	Z47	X48	Y48	Z48	X49	Y49	Z49	X50	Y50	Z50	X51	Y51	Z51	X52	Y52	Z52	X53	Y53	Z53	

1	0	-1754.678955078125	966.9796752929688	-600.5004272460938	-1683.938354492188	969.4644775390625	-723.6707153320312	-1712.403076171875	1062.7099609375	-640.4112548828125	-1463.429077148438	1255.591674804688	-522.07177734375	-1726.075317382812	1187.685791015625	-650.3216552734375	-1664.107055664062	1455.086791992188	-606.2892456054688	-1492.18115234375	1370.344482421875	-541.9174194335938	-1764.844482421875	1337.962768554688	-548.99169921875	-1652.9873046875	1407.442749023438	-709.2716064453125	-1523.7744140625	1428.4482421875	-739.9866333007812	-1492.542114257812	1312.488891601562	-834.8134765625	-1456.240234375	1100.284057617188	-867.1724853515625	-1555.09375	1085.029174804688	-845.0233154296875	-1395.71337890625	906.2976684570312	-801.7996826171875	-1415.841064453125	885.9840087890625	-871.2402954101562	-1429.990478515625	1014.26123046875	-870.2985229492188	-1357.513916015625	744.0668334960938	-799.31787109375	-1394.865478515625	808.1749267578125	-866.7713623046875	-1361.282348632812	825.28076171875	-804.274658203125	-1670.68994140625	1424.395263671875	-429.8304138183594	-1719.258544921875	1363.585815429688	-368.3043518066406	-1742.627319335938	1077.405639648438	-314.9797058105469	-1775.798217773438	1061.538208007812	-372.1702270507812	-1635.889526367188	876.7349853515625	-311.6157836914062	-1719.634155273438	859.3018188476562	-290.2816467285156	-1744.301391601562	1019.725280761719	-304.5486145019531	-1621.0712890625	718.7611694335938	-301.2600708007812	-1625.148559570312	777.8676147460938	-293.9227905273438	-1700.865966796875	773.3521118164062	-284.5823364257812	-1625.311645507812	1649.660766601562	-496.5474243164062	-1435.258911132812	1665.254028320312	-578.7084350585938	-1492.24853515625	1666.050415039062	-460.6830444335938	-1562.53466796875	1652.962890625	-662.7246704101562	-1507.697631835938	865.9342041015625	-756.7583618164062	-1725.230224609375	863.7110595703125	-423.1371154785156	-1601.645874023438	903.8670043945312	-424.14208984375	-1459.901977539062	902.9078979492188	-639.7760620117188	-1496.126586914062	442.4906311035156	-715.5494384765625	-1469.189086914062	596.439697265625	-724.7748413085938	-1600.757446289062	37.06172561645508	-782.4229125976562	-1517.588745117188	289.1352844238281	-744.5194702148438	-1447.327026367188	46.74394989013672	-600.9959716796875	-1525.581909179688	51.03149032592773	-615.5770874023438	-1465.2890625	47.60462951660156	-711.9134521484375	-1674.496459960938	35.99099731445312	-766.7758178710938	-1677.658813476562	471.1692810058594	-424.5566101074219	-1691.947998046875	730.0191040039062	-389.6109924316406	-1742.191162109375	42.72025299072266	-448.5990295410156	-1694.61279296875	326.2035522460938	-414.8670654296875	-1525.700805664062	47.90781402587891	-407.0511779785156	-1570.973510742188	55.80033111572266	-463.6700744628906	-1628.488403320312	48.68708419799805	-372.0870056152344	-1783.200561523438	34.16217041015625	-520.4527587890625	
2	0.01	-1754.681640625	966.985107421875	-600.4453735351562	-1683.918579101562	969.4234008789062	-723.6195068359375	-1712.406982421875	1062.701293945312	-640.3508911132812	-1463.3251953125	1255.56298828125	-522.1539306640625	-1726.015502929688	1187.63818359375	-650.2432861328125	-1664.0673828125	1455.062744140625	-606.2684936523438	-1492.087158203125	1370.332641601562	-541.9783325195312	-1764.778076171875	1337.946899414062	-548.8988037109375	-1653.017333984375	1407.426513671875	-709.2594604492188	-1523.751220703125	1428.377197265625	-740.0294189453125	-1492.608764648438	1312.426391601562	-834.87353515625	-1456.540283203125	1100.219604492188	-867.2821044921875	-1555.411499023438	1085.105346679688	-845.1414794921875	-1396.1025390625	906.174560546875	-802.0240478515625	-1416.276611328125	885.8441162109375	-871.5172119140625	-1430.367553710938	1014.14111328125	-870.4620361328125	-1358.25244140625	743.6568603515625	-799.6739501953125	-1395.380493164062	808.0110473632812	-867.07666015625	-1361.933959960938	825.0699462890625	-804.6327514648438	-1670.548950195312	1424.390014648438	-429.8114624023438	-1719.105590820312	1363.621459960938	-368.2430725097656	-1742.393188476562	1077.46875	-314.79736328125	-1775.53955078125	1061.496337890625	-371.9134521484375	-1635.406860351562	876.8550415039062	-311.4242553710938	-1719.081909179688	859.3477172851562	-289.9757080078125	-1743.90087890625	1019.744262695312	-304.2796936035156	-1621.227294921875	718.8035278320312	-301.2174987792969	-1624.518798828125	777.953857421875	-293.6562194824219	-1700.232543945312	773.4253540039062	-284.2518615722656	-1625.27099609375	1649.634643554688	-496.5807800292969	-1435.193725585938	1665.28076171875	-578.836181640625	-1492.206787109375	1666.07861328125	-460.7456359863281	-1562.536987304688	1652.926391601562	-662.8034057617188	-1507.681274414062	865.9109497070312	-756.7367553710938	-1725.160278320312	863.6862182617188	-423.0686340332031	-1601.522094726562	903.8566284179688	-424.0886535644531	-1459.84326171875	902.8687744140625	-639.7464599609375	-1496.037841796875	442.458251953125	-715.4957275390625	-1469.179809570312	596.4094848632812	-724.7353515625	-1600.779541015625	37.0457878112793	-782.4423828125	-1517.542602539062	289.1167297363281	-744.4287719726562	-1447.310913085938	46.74787902832031	-601.0142211914062	-1525.562622070312	51.03601455688477	-615.5921630859375	-1465.311401367188	47.63815689086914	-711.9375610351562	-1674.511840820312	35.99827575683594	-766.7769775390625	-1677.568481445312	471.1138916015625	-424.5033569335938	-1691.897583007812	729.9893798828125	-389.5476989746094	-1742.22412109375	42.71212005615234	-448.5789184570312	-1694.566528320312	326.1911315917969	-414.8285217285156	-1525.72119140625	47.93204879760742	-407.0411682128906	-1570.985961914062	55.80204010009766	-463.677734375	-1628.502197265625	48.69094848632812	-372.0900268554688	-1783.2021484375	34.14906311035156	-520.4520263671875	
3	0.02	-1754.6689453125	966.993896484375	-600.3709716796875	-1683.880493164062	969.3722534179688	-723.5411376953125	-1712.435180664062	1062.722412109375	-640.2866821289062	-1463.185424804688	1255.525756835938	-522.2542114257812	-1725.93994140625	1187.58740234375	-650.1416625976562	-1664.010375976562	1455.03271484375	-606.2376098632812	-1491.956665039062	1370.31689453125	-542.0570678710938	-1764.685668945312	1337.93505859375	-548.7752685546875	-1653.0380859375	1407.408081054688	-709.2329711914062	-1523.719360351562	1428.292236328125	-740.07470703125	-1492.688232421875	1312.350952148438	-834.9443969726562	-1456.895629882812	1100.1435546875	-867.419189453125	-1555.756591796875	1085.155029296875	-845.2646484375	-1396.589721679688	905.9978637695312	-802.3312377929688	-1416.842651367188	885.6817016601562	-871.8803100585938	-1430.835083007812	1013.99609375	-870.6754760742188	-1359.21484375	743.1944580078125	-800.1786499023438	-1396.071899414062	807.8107299804688	-867.4857788085938	-1362.68212890625	824.8004760742188	-805.0780639648438	-1670.362182617188	1424.382690429688	-429.7793273925781	-1718.901733398438	1363.661254882812	-368.1654968261719	-1742.07666015625	1077.541748046875	-314.5657043457031	-1775.192138671875	1061.4404296875	-371.6016235351562	-1634.778198242188	877.0086669921875	-311.1906127929688	-1718.377807617188	859.4036865234375	-289.6072998046875	-1743.409057617188	1019.760925292969	-303.964111328125	-1621.349975585938	718.859619140625	-301.1431274414062	-1623.746337890625	778.0723876953125	-293.3373413085938	-1699.417846679688	773.50439453125	-283.8463134765625	-1625.19970703125	1649.601806640625	-496.6169128417969	-1435.09619140625	1665.306030273438	-578.9974365234375	-1492.145385742188	1666.1142578125	-460.8214416503906	-1562.520385742188	1652.879516601562	-662.8899536132812	-1507.65283203125	865.8794555664062	-756.7047119140625	-1725.067626953125	863.6542358398438	-422.9819946289062	-1601.369018554688	903.8421020507812	-424.0220642089844	-1459.774536132812	902.8156127929688	-639.7088623046875	-1495.920166015625	442.4219055175781	-715.4246215820312	-1469.161987304688	596.3704833984375	-724.6913452148438	-1600.806640625	37.02791213989258	-782.46484375	-1517.517211914062	289.0898742675781	-744.3492431640625	-1447.296997070312	46.76264190673828	-601.0361328125	-1525.538818359375	51.03892135620117	-615.6143188476562	-1465.34033203125	47.67653656005859	-711.9658203125	-1674.534423828125	36.00510406494141	-766.777587890625	-1677.44775390625	471.0439453125	-424.4293212890625	-1691.840454101562	729.9576416015625	-389.4716186523438	-1742.262084960938	42.69878005981445	-448.5570983886719	-1694.515014648438	326.1693115234375	-414.7815246582031	-1525.745483398438	47.96372985839844	-407.034423828125	-1571.000854492188	55.80444717407227	-463.6878051757812	-1628.516357421875	48.69589996337891	-372.0951538085938	-1783.206909179688	34.13221740722656	-520.4513549804688	
4	0.03	-1754.634887695312	967.0075073242188	-600.27783203125	-1683.818481445312	969.3154296875	-723.431640625	-1712.473266601562	1062.768188476562	-640.2150268554688	-1463.010986328125	1255.48193359375	-522.3651733398438	-1725.8515625	1187.541259765625	-650.0189208984375	-1663.934936523438	1454.998779296875	-606.1962280273438	-1491.789794921875	1370.296508789062	-542.151123046875	-1764.56689453125	1337.929443359375	-548.6235961914062	-1653.041625976562	1407.388549804688	-709.1908569335938	-1523.677612304688	1428.19873046875	-740.1160278320312	-1492.775146484375	1312.266357421875	-835.0210571289062	-1457.285034179688	1100.05859375	-867.5799560546875	-1556.088256835938	1085.152465820312	-845.375732421875	-1397.149047851562	905.7640380859375	-802.7175903320312	-1417.520385742188	885.5075073242188	-872.319580078125	-1431.370361328125	1013.83544921875	-870.9342041015625	-1360.347412109375	742.7222290039062	-800.8202514648438	-1396.921264648438	807.5831909179688	-867.9898681640625	-1363.478881835938	824.4827880859375	-805.5962524414062	-1670.134765625	1424.373413085938	-429.7318420410156	-1718.646240234375	1363.7021484375	-368.0724487304688	-1741.67724609375	1077.6171875	-314.2936706542969	-1774.764770507812	1061.374389648438	-371.2540893554688	-1634.017333984375	877.189453125	-310.9271240234375	-1717.544677734375	859.4667358398438	-289.1974792480469	-1742.848022460938	1019.773071289062	-303.6258850097656	-1621.412109375	718.9271240234375	-301.0375061035156	-1622.862915039062	778.2183837890625	-292.9864807128906	-1698.450439453125	773.583251953125	-283.3914184570312	-1625.090576171875	1649.563720703125	-496.6526794433594	-1434.963623046875	1665.325439453125	-579.1838989257812	-1492.06103515625	1666.156127929688	-460.90771484375	-1562.474853515625	1652.822875976562	-662.97509765625	-1507.609741210938	865.840576171875	-756.6611328125	-1724.953125	863.6160278320312	-422.8792419433594	-1601.199340820312	903.8214721679688	-423.9450378417969	-1459.7001953125	902.7496948242188	-639.6641845703125	-1495.778198242188	442.3846130371094	-715.3375854492188	-1469.135009765625	596.32421875	-724.6452026367188	-1600.8369140625	37.00959777832031	-782.488525390625	-1517.519897460938	289.0555114746094	-744.2899169921875	-1447.287231445312	46.79141998291016	-601.0596923828125	-1525.510131835938	51.03872680664062	-615.6438598632812	-1465.37548828125	47.71784591674805	-711.9968872070312	-1674.563842773438	36.00916290283203	-766.7769775390625	-1677.301513671875	470.9631958007812	-424.3359680175781	-1691.780395507812	729.9271850585938	-389.38720703125	-1742.301635742188	42.67917633056641	-448.5354614257812	-1694.46240234375	326.1368408203125	-414.7286376953125	-1525.772705078125	48.00163269042969	-407.0338439941406	-1571.017578125	55.80755996704102	-463.7002868652344	-1628.529541015625	48.70180511474609	-372.1027221679688	-1783.216430664062	34.11301803588867	-520.4507446289062	
